# xmcd
#
# Track frame offsets: 
#        150
#        27222
#        48889
#        67234
#        94125
#        121039
#        143656
#        157284
#        178884
#        201852
#        219687
#        234004
#        257546
#        276993
#
# Disc length: 3923 seconds
#
# Revision: 0
# Processed by: cddbd v1.5.2PL0 Copyright (c) Steve Scherf et al.
# Submitted via: ExactAudioCopy v0.95b4
#
DISCID=cc0f510e
DTITLE=Dan Seals - Jackpot, NV - November 10 (1st)
DYEAR=1999
DGENRE=Country
TTITLE0=Big Wheels in the Moonlight
TTITLE1=Rage On
TTITLE2=Headin' West
TTITLE3=San Antone
TTITLE4=Car Talk
TTITLE5=My Old Yellow Car
TTITLE6=I'd Really Love To See You Tonight
TTITLE7=Good Times
TTITLE8=Sax Instrumental
TTITLE9=We Are One
TTITLE10=Three Times Loser
TTITLE11=Everything That Glitters (Is Not Gold)
TTITLE12=Bop
TTITLE13=One Friend
EXTD=
EXTT0=
EXTT1=
EXTT2=
EXTT3=
EXTT4=
EXTT5=
EXTT6=
EXTT7=
EXTT8=
EXTT9=
EXTT10=
EXTT11=
EXTT12=
EXTT13=
PLAYORDER=
